<?xml version="1.0" encoding="UTF-8"?><svg id="Layer_1" xmlns="http://www.w3.org/2000/svg" width="2.86in" height="2.86in" viewBox="0 0 205.67 205.67"><path d="m102.74.1C45.99.1,0,46.12,0,102.84s45.99,102.73,102.74,102.73,102.74-45.99,102.74-102.74S159.48.1,102.74.1Zm64.75,126.05c0,7.9-3.03,15.06-7.87,20.05-1.28,1.32-2.71,2.49-4.2,3.49-3.6,2.35-7.77,3.71-12.22,3.71H62.31c-13.43,0-24.33-12.22-24.33-27.25v-46.59c0-8.19,3.28-15.92,8.98-21.12,4.35-3.99,9.79-6.17,15.35-6.17h80.89l-.04.04c13.43,0,24.33,12.22,24.33,27.25v46.59Zm-43.42-22.66l30.92,33.77c2.28-3.03,3.63-6.91,3.63-11.15v-46.59c0-3.67-1.03-7.05-2.78-9.86l-31.77,33.83Zm-14.71.86l38.72-41.21c-1.53-.57-3.17-.89-4.88-.89H62.31c-1.82,0-3.6.35-5.27,1.07l39.54,41.03c3.88,3.52,8.86,3.52,12.78,0Zm6.49,7.91c-.08.07-.18.17-.25.25-3.74,3.49-8.16,5.23-12.58,5.23s-8.79-1.74-12.57-5.2l-.21-.21-2.32-2.39-29.99,32.73c1.39.47,2.85.72,4.38.72h80.96c1.39,0,2.78-.22,4.06-.61l-29.7-32.41-1.78,1.89Zm-66.4-42.25c-1.67,2.82-2.56,6.09-2.56,9.51v46.52c0,4.13,1.28,7.94,3.45,10.9l31.03-33.84-31.92-33.09Z" fill="#221f71"/></svg>