<?xml version="1.0" encoding="UTF-8"?><svg id="Layer_1_copy" xmlns="http://www.w3.org/2000/svg" width="2in" height="2in" viewBox="0 0 144 144"><path d="m71.82,140.67l-20.41-19.79h-29.23c-2.59,0-4.71,2.12-4.71,4.71v11.26c0,2.59,2.12,4.71,4.71,4.71h51.8c-.78,0-1.56-.31-2.16-.89Z" fill="#2c2a6e"/><path d="m125.78,120.89h-28.49l-21.12,19.82c-.62.58-1.41.86-2.2.86h0s51.8,0,51.8,0c2.59,0,4.71-2.12,4.71-4.71v-11.26c0-2.59-2.12-4.71-4.71-4.71Z" fill="#fdc03b"/><path d="m88.67,86.95c0,8.12-6.58,14.69-14.69,14.69v19.24h23.31l28.87-27.1c1.07-1.01,1.31-2.62.57-3.89L76.69,4c-.61-1.04-1.66-1.56-2.71-1.57v69.82c8.12,0,14.69,6.58,14.69,14.69Z" fill="#2c2a6e"/><path d="m73.98,101.65c-8.12,0-14.69-6.58-14.69-14.69s6.58-14.69,14.69-14.69V2.44c-1.06,0-2.12.51-2.74,1.55L21.43,88.47c-.74,1.26-.52,2.86.52,3.87l29.45,28.54h22.58v-19.24Z" fill="#fdc03b"/><path d="m73.98,141.56c.79,0,1.58-.28,2.2-.86l21.12-19.82h-23.31v20.68Z" fill="#2c2a6e"/><path d="m73.98,141.56v-20.68h-22.58l20.41,19.79c.6.58,1.38.88,2.16.89Z" fill="#fdc03b"/><path d="m59.28,86.95c0,8.12,6.58,14.69,14.69,14.69v-29.39c-8.12,0-14.69,6.58-14.69,14.69Z" fill="#2c2a6e"/><path d="m88.67,86.95c0-8.12-6.58-14.69-14.69-14.69v29.39c8.12,0,14.69-6.58,14.69-14.69Z" fill="#40c4ea"/></svg>