<?xml version="1.0" encoding="UTF-8"?><svg id="instagram" xmlns="http://www.w3.org/2000/svg" viewBox="0 0 386.91 380.69"><defs><style>.cls-1{fill:#ec1a74;}.cls-2{fill:#fff;}</style></defs><circle class="cls-1" cx="193.45" cy="188.62" r="187.15"/><path class="cls-2" d="M247.35,314.35h-107.8c-38.93,0-70.61-31.68-70.61-70.61v-107.8c0-38.93,31.68-70.61,70.61-70.61h107.8c38.93,0,70.61,31.68,70.61,70.61v107.8c0,38.93-31.68,70.61-70.61,70.61ZM139.55,89.53c-25.59,0-46.41,20.82-46.41,46.41v107.8c0,25.59,20.82,46.41,46.41,46.41h107.8c25.59,0,46.41-20.82,46.41-46.41v-107.8c0-25.59-20.82-46.41-46.41-46.41h-107.8Z"/><path class="cls-2" d="M193.45,254.12c-35.44,0-64.28-28.83-64.28-64.28s28.84-64.28,64.28-64.28,64.28,28.84,64.28,64.28-28.84,64.28-64.28,64.28Zm0-104.19c-22.01,0-39.91,17.91-39.91,39.91s17.91,39.91,39.91,39.91,39.91-17.9,39.91-39.91-17.91-39.91-39.91-39.91Z"/><path class="cls-2" d="M260.91,137.46c-8.25,0-14.96-6.71-14.96-14.96s6.71-14.96,14.96-14.96,14.96,6.71,14.96,14.96-6.71,14.96-14.96,14.96Zm0-24.37c-5.19,0-9.41,4.22-9.41,9.41s4.22,9.41,9.41,9.41,9.41-4.22,9.41-9.41-4.22-9.41-9.41-9.41Z"/></svg>