<?xml version="1.0" encoding="UTF-8"?><svg id="Layer_1" xmlns="http://www.w3.org/2000/svg" width="2in" height="2in" viewBox="0 0 144 144"><path d="m42.52,66.38l29.77-29.77-13.54-13.54c-3.27-3.27-8.57-3.27-11.83,0L4.19,65.79c-3.27,3.27-3.27,8.57,0,11.83l42.72,42.72c3.27,3.27,8.57,3.27,11.83,0l12.95-12.95-29.18-29.18c-3.27-3.27-3.27-8.57,0-11.83Z" fill="#40c4ea"/><path d="m139.81,66.38l-42.72-42.72c-3.27-3.27-8.57-3.27-11.83,0l-12.95,12.95,29.18,29.18c3.27,3.27,3.27,8.57,0,11.83l-29.77,29.77,13.54,13.54c3.27,3.27,8.57,3.27,11.83,0l42.72-42.72c3.27-3.27,3.27-8.57,0-11.83Z" fill="#fac03a"/><path d="m101.48,65.79l-29.18-29.18-29.77,29.77c-3.27,3.27-3.27,8.57,0,11.83l29.18,29.18,29.77-29.77c3.27-3.27,3.27-8.57,0-11.83Z" fill="#2c2a6e"/></svg>