<?xml version="1.0" encoding="UTF-8"?><svg id="Layer_1" xmlns="http://www.w3.org/2000/svg" width="2in" height="2in" viewBox="0 0 144 144"><path d="m42.32,85.94c0-8.74,4.82-20.46,10.64-31.41-5.15-9.79-11.21-18.76-15.43-24.6-2.52-3.48-7.72-3.41-10.15.13C18.71,42.71,1.77,69.55,1.77,85.94s13.69,30.69,30.57,30.69c7.78,0,14.88-2.92,20.27-7.73-6.31-5.62-10.3-13.83-10.3-22.97Z" fill="#40c4ea"/><path d="m82.86,85.94c0-8.74,4.82-20.46,10.64-31.41-5.15-9.79-11.21-18.76-15.43-24.6-2.52-3.48-7.72-3.41-10.15.13-4.04,5.9-9.88,14.89-14.97,24.47,5.5,10.47,9.96,21.88,9.96,31.41s-3.98,17.34-10.3,22.97c5.4,4.81,12.49,7.73,20.27,7.73s14.88-2.92,20.27-7.73c-6.31-5.62-10.3-13.83-10.3-22.97Z" fill="#ed1d75"/><path d="m62.91,85.94c0-9.53-4.45-20.94-9.96-31.41-5.81,10.95-10.64,22.67-10.64,31.41s3.98,17.34,10.3,22.97c6.31-5.62,10.3-13.83,10.3-22.97Z" fill="#2c2a6e"/><path d="m118.61,29.93c-2.52-3.48-7.72-3.41-10.15.13-4.04,5.9-9.88,14.89-14.97,24.47,5.5,10.47,9.96,21.88,9.96,31.41s-3.98,17.34-10.3,22.97c5.4,4.81,12.49,7.73,20.27,7.73,16.88,0,30.57-13.74,30.57-30.69,0-18.44-16.67-43.93-25.39-56.01Z" fill="#fac03a"/><path d="m103.46,85.94c0-9.53-4.45-20.94-9.96-31.41-5.81,10.95-10.64,22.67-10.64,31.41s3.98,17.34,10.3,22.97c6.31-5.62,10.3-13.83,10.3-22.97Z" fill="#2c2a6e"/></svg>