<?xml version="1.0" encoding="UTF-8"?><svg id="Layer_1_copy" xmlns="http://www.w3.org/2000/svg" width="2in" height="2in" viewBox="0 0 144 144"><rect x="54.39" y="57.88" width="36.1" height="28.9" fill="none"/><rect x="25.87" y="2.44" width="28.52" height="26.93" fill="#ed1d75"/><rect x="25.87" y="115.3" width="28.52" height="26.93" fill="#ed1d75"/><rect x="25.87" y="57.88" width="28.52" height="28.9" fill="#ed1d75"/><rect x="90.49" y="115.3" width="28.52" height="26.93" fill="#ed1d75"/><rect x="90.49" y="2.44" width="28.52" height="26.93" fill="#ed1d75"/><rect x="90.49" y="57.88" width="28.52" height="28.9" fill="#ed1d75"/><rect x="119.01" y="29.36" width="23.32" height="28.52" fill="#fdc03b"/><rect x="2.55" y="29.36" width="23.32" height="28.52" fill="#fdc03b"/><rect x="54.39" y="29.36" width="36.1" height="28.52" fill="#fdc03b"/><rect x="25.87" y="29.36" width="28.52" height="28.52" fill="#2c2a6e"/><rect x="90.49" y="29.36" width="28.52" height="28.52" fill="#2c2a6e"/><rect x="119.01" y="86.78" width="23.32" height="28.52" fill="#fdc03b"/><rect x="54.39" y="86.78" width="36.1" height="28.52" fill="#fdc03b"/><rect x="2.55" y="86.78" width="23.32" height="28.52" fill="#fdc03b"/><rect x="25.87" y="86.78" width="28.52" height="28.52" fill="#2c2a6e"/><rect x="90.49" y="86.78" width="28.52" height="28.52" fill="#2c2a6e"/></svg>